<svg width="254" height="61" viewBox="0 0 254 61" fill="none" xmlns="http://www.w3.org/2000/svg">
<path fill-rule="evenodd" clip-rule="evenodd" d="M94.4454 32.8008C94.4454 27.6011 98.337 23.644 103.504 23.644C108.736 23.644 112.563 27.503 112.563 32.8008C112.563 38.1313 108.736 41.9903 103.504 41.9903C98.2716 41.9903 94.4454 38.1313 94.4454 32.8008ZM98.4024 32.8662C98.4024 35.6132 100.201 38.5565 103.504 38.5565C106.84 38.5565 108.606 35.6786 108.606 32.8662C108.606 29.1708 106.022 27.2086 103.504 27.2086C100.201 27.2086 98.4024 30.0865 98.4024 32.8662Z" fill="black"/>
<path d="M81.397 21.0606C83.8824 21.0606 86.4005 22.336 87.6105 24.2654C87.6759 24.3308 88.1338 25.1157 88.9841 25.3446C89.7362 25.5408 91.1097 25.5735 91.8292 24.756C92.0254 24.527 92.0908 24.1673 91.96 23.8403C91.8292 23.546 91.6003 22.99 91.1424 22.3687C88.9841 19.0984 85.5176 17.2997 81.397 17.2997C74.3659 17.2997 69.0681 22.5976 69.0681 29.6614C69.0681 36.7251 74.3659 42.023 81.3643 42.023C86.5641 42.023 89.54 39.2433 91.1097 36.9541C91.5349 36.3327 91.7965 35.7768 91.9273 35.4824C92.0581 35.1881 91.9927 34.8611 91.7965 34.5668C91.077 33.7165 89.6708 33.7165 88.9514 33.9781C87.9376 34.3706 87.6105 35.0246 87.6105 35.0246C86.4005 36.9541 83.9151 38.2295 81.397 38.2295C76.8187 38.2295 73.3195 34.5341 73.3195 29.6614C73.3522 24.756 76.8187 21.0606 81.397 21.0606Z" fill="black"/>
<path fill-rule="evenodd" clip-rule="evenodd" d="M221.626 32.8008C221.626 27.6011 225.387 23.644 230.391 23.644C235.394 23.644 238.893 27.5357 238.926 33.0951C238.926 33.7165 238.435 34.207 237.814 34.207H225.649C225.976 36.5289 227.742 38.7527 230.979 38.7527C232.156 38.7527 233.334 38.4584 234.38 37.8697C234.478 37.7716 234.936 37.51 235.688 37.5427C236.31 37.5427 237.356 37.9678 237.618 38.7854C237.716 39.0143 237.651 39.3413 237.454 39.5376C237.193 39.8319 236.866 40.0935 236.473 40.3551C234.871 41.4016 232.876 41.9903 230.685 41.9903C225.322 41.9903 221.626 38.1967 221.626 32.8008ZM230.358 26.947C227.513 26.947 225.91 29.1054 225.616 31.2638H235.1C234.904 29.1381 233.366 26.947 230.358 26.947Z" fill="black"/>
<path fill-rule="evenodd" clip-rule="evenodd" d="M162.925 32.8008C162.925 27.6011 166.686 23.644 171.689 23.644C176.693 23.644 180.192 27.5357 180.225 33.0951C180.225 33.7165 179.734 34.207 179.113 34.207H166.947C167.274 36.5289 169.04 38.7527 172.278 38.7527C173.455 38.7527 174.632 38.4584 175.679 37.8697C175.686 37.8652 175.694 37.8604 175.703 37.8553C175.879 37.7483 176.269 37.5115 176.987 37.5427C177.608 37.5427 178.655 37.9678 178.916 38.7854C179.015 39.0143 178.949 39.3413 178.753 39.5376C178.491 39.8319 178.164 40.0935 177.772 40.3551C176.169 41.4016 174.175 41.9903 171.984 41.9903C166.62 41.9903 162.925 38.1967 162.925 32.8008ZM171.624 26.947C168.779 26.947 167.176 29.1054 166.882 31.2638H176.366C176.169 29.1381 174.632 26.947 171.624 26.947Z" fill="black"/>
<path fill-rule="evenodd" clip-rule="evenodd" d="M182.416 32.8008C182.416 27.6011 186.176 23.644 191.18 23.644C196.184 23.644 199.715 27.5357 199.715 33.0951C199.715 33.7165 199.225 34.207 198.604 34.207H186.438C186.765 36.5289 188.531 38.7527 191.769 38.7527C192.946 38.7527 194.123 38.4584 195.17 37.8697C195.177 37.8652 195.185 37.8604 195.194 37.8553C195.37 37.7483 195.76 37.5115 196.478 37.5427C197.099 37.5427 198.146 37.9678 198.407 38.7854C198.505 39.0143 198.44 39.3413 198.244 39.5376C197.982 39.8319 197.655 40.0935 197.263 40.3551C195.66 41.4016 193.665 41.9903 191.474 41.9903C186.111 41.9903 182.416 38.1967 182.416 32.8008ZM191.147 26.947C188.302 26.947 186.7 29.1054 186.405 31.2638H195.889C195.693 29.1381 194.156 26.947 191.147 26.947Z" fill="black"/>
<path d="M119.823 37.1503V36.2346V28.3205V27.3722V26.3257C119.823 25.6389 119.757 23.7749 117.141 23.7749C115.571 23.7749 115.212 24.2 115.702 25.3119C116.127 26.293 115.996 26.62 116.029 27.3395V38.3603V39.8973C116.029 40.5841 115.964 41.6305 118.547 41.6305C120.248 41.6305 119.823 41.1727 119.823 39.3741C119.823 38.7854 119.823 38.2949 119.823 37.1503Z" fill="black"/>
<path d="M139.771 39.4068C139.771 38.9489 139.771 38.5565 139.771 37.8697V29.4651C139.771 25.7697 137.678 23.7095 133.852 23.7095C131.53 23.7095 129.339 24.7887 127.933 26.1622C127.9 26.1622 127.9 26.1295 127.9 26.0968C127.868 25.3119 127.606 23.7749 125.219 23.7749C123.649 23.7749 123.289 24.2 123.78 25.3119C124.139 26.1295 124.074 26.5219 124.107 28.6476V38.1641V39.8973C124.107 40.5841 124.041 41.6306 126.625 41.6306C128.325 41.6306 127.9 41.1727 127.9 39.3741C127.9 38.7527 127.9 38.2622 127.9 37.1176V36.2019V29.367C128.751 28.2551 130.68 27.176 132.511 27.176C134.833 27.176 135.912 28.2551 135.912 30.5116V37.1503V37.5754V37.837V39.8973C135.912 40.5841 135.847 41.6306 138.431 41.6306C140.164 41.6633 139.771 41.2054 139.771 39.4068Z" fill="black"/>
<path d="M160.897 38.7854C160.112 37.9024 152.46 29.6286 152.46 29.6286V29.5959C152.46 29.5959 159.491 21.2895 160.309 20.2757C161.453 18.9022 161.78 19.0003 162.009 18.4443C162.14 18.0846 161.748 17.6268 161.094 17.6268C158.575 17.5613 158.216 17.6595 157.496 18.0519C156.777 18.4443 156.188 19.2619 156.188 19.2619L148.143 28.7784V20.7335V20.6681V20.1449C148.143 19.3927 148.078 17.3324 145.2 17.3324C143.565 17.3324 143.499 17.7249 143.826 19.0657C143.957 19.5889 143.99 19.8832 143.99 20.243C143.99 20.3084 143.99 20.3738 143.99 20.4719C143.99 20.57 143.99 20.6354 143.99 20.7335V22.2051V38.164V39.7011C143.99 40.4532 143.925 41.5978 146.77 41.5978C148.634 41.5978 148.176 41.0746 148.176 39.1451C148.176 38.4257 148.176 37.9351 148.176 36.6597V35.6786V30.3481L157.398 40.3551C157.398 40.3551 158.543 41.5978 160.439 41.5978C162.336 41.5978 162.794 41.5651 162.892 40.9765C162.99 40.257 162.467 40.584 160.897 38.7854Z" fill="black"/>
<path fill-rule="evenodd" clip-rule="evenodd" d="M206.452 26.2276C207.597 24.7886 209.624 23.644 211.554 23.644C216.328 23.644 219.402 27.274 219.37 32.8008C219.37 38.2949 216.263 41.9903 211.554 41.9903C209.559 41.9903 207.662 40.7803 206.387 39.2432V45.0643V45.98V48.2365C206.387 48.5797 206.402 48.8741 206.415 49.1259C206.472 50.1932 206.487 50.493 205.111 50.493C202.589 50.493 202.592 49.4958 202.593 48.8094C202.593 48.7927 202.593 48.7761 202.593 48.7597V47.7786V28.9092C202.588 28.5218 202.585 28.1878 202.583 27.8964C202.571 26.3922 202.568 26.0242 202.266 25.3119C201.776 24.2 202.135 23.7749 203.705 23.7749C206.125 23.7749 206.354 25.3446 206.387 26.1294C206.387 26.1622 206.387 26.2276 206.452 26.2276ZM206.419 36.3327C207.139 37.4119 208.872 38.5565 210.736 38.5565C213.581 38.5565 215.413 36.3 215.478 32.8008C215.478 29.4324 213.549 27.1432 210.736 27.1432C209.068 27.1432 207.27 28.0916 206.419 29.367V36.3327Z" fill="black"/>
<path d="M250.895 23.7422C248.704 23.7095 246.644 25.083 245.63 26.2276C245.597 26.2276 245.597 26.1949 245.597 26.1622C245.597 25.1157 245.041 23.8076 242.589 23.7422C241.019 23.6768 240.757 24.2654 241.313 25.1811C241.902 26.2276 241.771 27.503 241.771 28.3532V39.3086V40.0608C241.771 40.7476 241.706 41.7941 244.289 41.7941C245.99 41.7941 245.565 41.3362 245.565 39.5376C245.565 38.9162 245.565 38.4257 245.565 37.2811V36.3654V29.6941C246.251 28.6149 248.05 27.5684 250.143 27.5357C251.222 27.503 251.189 27.3395 251.942 26.5219C253.511 24.8868 253.577 23.7749 250.895 23.7422Z" fill="black"/>
<circle cx="117.795" cy="18.7714" r="2.48541" fill="black"/>
<circle cx="30.25" cy="30.25" r="30.25" fill="#1576EF"/>
<path d="M48.727 38.8835C46.6341 38.3276 44.3449 38.4584 42.35 39.3087C41.4343 39.7011 40.5187 40.257 39.7665 40.9438C37.183 43.233 33.8473 44.5411 30.3154 44.5411C22.4341 44.5411 16.0243 38.1314 16.0243 30.25C16.0243 22.3687 22.4341 15.9589 30.3154 15.9589C33.8473 15.9589 37.183 17.2671 39.7665 19.5562C40.5514 20.243 41.4016 20.7989 42.35 21.1914C44.3449 22.0743 46.6341 22.1725 48.727 21.6165C50.0024 21.2568 52.1281 20.5373 51.2778 18.7714C49.8062 15.7627 46.6668 12.3616 43.3311 10.2033C39.4395 7.65246 34.9265 6.31165 30.2827 6.31165C27.0451 6.31165 23.9384 6.933 20.9624 8.2084C18.1173 9.4184 15.5665 11.1516 13.3754 13.31C11.1843 15.5011 9.45108 18.0846 8.27379 20.897C7.03108 23.873 6.37703 26.9798 6.37703 30.2173C6.37703 33.4549 6.99838 36.5616 8.27379 39.5376C9.48379 42.3827 11.217 44.9335 13.3754 47.1246C15.5665 49.3157 18.15 51.0489 20.9624 52.2262C23.9384 53.4689 27.0451 54.123 30.2827 54.123C34.9592 54.123 39.4395 52.7822 43.3311 50.2314C46.6668 48.0403 49.7735 44.6719 51.2778 41.6633C52.1608 39.9627 50.0024 39.2106 48.727 38.8835Z" fill="white"/>
<circle cx="48.8905" cy="30.25" r="5.59216" fill="white"/>
</svg>
